<svg width="450" height="293" viewBox="0 0 450 293" fill="none" xmlns="http://www.w3.org/2000/svg">
<path d="M228.151 15.2039C231.494 12.124 237.013 12.8648 239.415 16.7356C241.613 20.1984 240.585 24.7851 237.117 26.9826L215.439 40.7134L217.441 37.3046L213.937 55.5179L212.188 51.4266L221.662 58.4356C225.904 61.7694 221.362 68.1041 216.838 65.1532L207.173 58.4106C205.899 57.5324 205.187 55.9341 205.424 54.3151L207.127 35.8437C207.231 34.7616 207.718 33.7044 208.584 32.9219L209.133 32.4266L228.156 15.1998V15.2081L228.151 15.2039Z" fill="#E48544"/>
<path d="M239.463 21.0861C242.31 19.2381 246.222 20.2828 247.758 23.3211C249.215 26.1722 248.1 29.6642 245.244 31.1292L220.394 43.8819L222.596 40.5106L222.055 52.3226L220.182 47.7693L228.561 56.185C231.816 59.5646 227.616 64.7881 223.595 62.2742L213.664 55.7688C212.265 54.849 211.462 53.1634 211.757 51.4069L211.79 51.2155L213.763 39.5533C213.976 38.2173 214.733 36.9728 215.965 36.182L239.458 21.0903V21.082L239.463 21.0861Z" fill="#E48544"/>
<path d="M241.516 24.4854C244.7 22.3544 249.121 23.4698 250.907 26.8619C252.609 30.0584 251.398 34.0165 248.209 35.7105L230.844 44.9545L233.383 41.5666L231.031 52.9208L229.212 46.7983L234.802 55.239C236.942 58.4688 233.324 62.5268 229.849 60.6872L220.908 55.9299C219.076 54.9602 218.144 52.8 218.789 50.7523L219.085 49.8158C219.085 49.8158 222.556 38.7405 222.577 38.7322C223.001 37.4045 223.859 36.2016 225.116 35.3692L241.504 24.4895H241.512L241.516 24.4854Z" fill="#E48544"/>
<path d="M282.603 44.576C277.001 46.603 270.47 54.6982 260.567 59.2765C240.184 70.1979 243.801 50.8816 241.1 41.9081C238.398 32.9347 211.292 25.1765 210.639 22.4004C209.985 19.6243 233.004 10.7882 240.334 9.46462C247.664 8.14108 265.583 11.6206 273.005 11.3334C280.426 11.0462 288.206 42.5491 282.603 44.576Z" fill="#FDB47E"/>
<path d="M242.54 12.1115C247.876 11.2124 252.912 15.2996 253.108 20.7103C253.324 25.734 249.42 29.9876 244.396 30.2041L205.677 31.8772L208.403 30.9907L183.408 42.1992C179.058 44.0555 175.661 38.2452 179.441 35.3734L201.56 19.2161C202.051 18.8624 202.642 18.596 203.292 18.4919L204.287 18.3296L242.544 12.1198V12.1115H242.54Z" fill="#FDB47E"/>
<path d="M255.345 39.7442C259.807 35.2159 267.695 36.144 270.954 41.6297C273.855 46.3495 272.369 52.5302 267.649 55.4187L246.362 68.4627L247.486 67.3597L232.634 81.7522C228.622 85.5189 222.536 80.6118 225.412 75.8795L236.493 58.4112L237.617 57.3082L255.357 39.7359L255.345 39.7484V39.7442Z" fill="#FDB47E"/>
<path d="M221.866 34.0496L216.459 38.3157C216.459 38.3157 213.437 50.6188 214.498 52.342C215.56 54.0651 222.411 57.1367 223.206 61.9689" stroke="#C66E34" stroke-width="3.78" stroke-miterlimit="10" stroke-linecap="round"/>
<path d="M228.757 36.8345L223.708 40.5304C223.708 40.5304 220.02 48.2844 223.121 50.8274C226.218 53.3705 230.16 56.0134 229.544 60.6333" stroke="#C66E34" stroke-width="3.78" stroke-miterlimit="10" stroke-linecap="round"/>
<path d="M297.707 44.6054C299.085 45.0257 450 67.4761 450 67.4761V3.37988L274.235 11.5251L277.257 44.1684L297.707 44.6054Z" fill="#FFB57F"/>
<path d="M196.747 97.7787C196.709 97.6538 196.68 97.5331 196.643 97.4083C196.609 97.2876 196.572 97.1669 196.543 97.0462C196.489 96.8464 196.443 96.6466 196.397 96.4468C196.372 96.3386 196.343 96.2345 196.322 96.1263C196.318 96.1013 196.31 96.0806 196.305 96.0556C196.289 95.9807 196.276 95.9016 196.264 95.8267C196.21 95.5561 196.16 95.2897 196.114 95.0233C196.093 94.8943 196.072 94.7695 196.056 94.6405C196.018 94.3991 195.989 94.1577 195.96 93.9163C195.952 93.8414 195.939 93.7706 195.931 93.6957C195.922 93.6249 195.918 93.55 195.914 93.4792C195.902 93.3502 195.893 93.2212 195.881 93.0922C195.868 92.9132 195.856 92.7384 195.847 92.5594C195.839 92.4304 195.835 92.3055 195.831 92.1765C195.827 91.9975 195.823 91.8185 195.818 91.6437C195.818 91.5189 195.818 91.3982 195.818 91.2734C195.818 91.0902 195.827 90.9071 195.831 90.7239C195.831 90.6074 195.835 90.495 195.843 90.3785C195.852 90.1745 195.868 89.9706 195.885 89.7708C195.893 89.6792 195.897 89.5877 195.906 89.4961C195.931 89.2048 195.964 88.9134 196.006 88.6221C196.01 88.5888 196.018 88.5555 196.022 88.5263C196.06 88.2683 196.097 88.0144 196.143 87.7647C196.16 87.6648 196.181 87.5691 196.201 87.4734C196.23 87.3235 196.26 87.1695 196.289 87.0197C196.293 86.9947 196.301 86.9697 196.31 86.9406C196.389 86.591 196.472 86.2455 196.568 85.9001C196.584 85.8335 196.605 85.7711 196.626 85.7086C196.709 85.4298 196.792 85.1509 196.888 84.8762C196.905 84.8304 196.917 84.7805 196.934 84.7347C196.963 84.6473 196.996 84.564 197.03 84.4766C197.071 84.3559 197.117 84.2394 197.163 84.1229C197.221 83.973 197.284 83.8232 197.342 83.6775C197.388 83.5652 197.438 83.4486 197.488 83.3362C197.504 83.2946 197.521 83.253 197.537 83.2155C197.604 83.0657 197.675 82.92 197.746 82.7743C197.771 82.7244 197.791 82.6745 197.816 82.6245C197.925 82.4081 198.033 82.1916 198.149 81.9794C198.162 81.9586 198.17 81.9419 198.183 81.9211C198.208 81.8712 198.237 81.8254 198.266 81.7754C198.366 81.5923 198.474 81.4133 198.578 81.2385C198.616 81.1761 198.653 81.1137 198.69 81.0554C198.72 81.0096 198.745 80.9639 198.774 80.9181C198.811 80.864 198.849 80.8098 198.886 80.7557C199.019 80.5476 199.161 80.3478 199.302 80.148C199.34 80.0981 199.369 80.044 199.406 79.994C199.436 79.9566 199.465 79.9192 199.494 79.8817C199.635 79.6903 199.781 79.5071 199.931 79.324C199.972 79.2698 200.014 79.2157 200.06 79.1616C200.072 79.145 200.089 79.1325 200.102 79.1159C200.306 78.8745 200.514 78.6414 200.73 78.4125C200.73 78.4125 200.738 78.4041 200.738 78.4C200.768 78.3708 200.801 78.3417 200.83 78.3126C201.013 78.1253 201.196 77.938 201.388 77.759C201.409 77.7424 201.425 77.7215 201.446 77.7007C201.504 77.6466 201.567 77.5967 201.629 77.5426C201.779 77.4094 201.925 77.2762 202.079 77.1514C202.116 77.1222 202.149 77.0889 202.183 77.0598C202.237 77.014 202.299 76.9724 202.353 76.9308C202.503 76.8101 202.657 76.6935 202.811 76.5812C202.865 76.5437 202.911 76.5021 202.965 76.4646C203.011 76.4313 203.057 76.4063 203.103 76.373C203.269 76.2565 203.44 76.1441 203.61 76.0359C203.677 75.9943 203.735 75.9485 203.802 75.9069C203.848 75.8778 203.894 75.8528 203.939 75.8278C203.985 75.7987 204.031 75.7737 204.077 75.7487C204.285 75.628 204.493 75.5073 204.709 75.395C204.718 75.3908 204.726 75.3866 204.734 75.3825C204.755 75.37 204.78 75.3617 204.801 75.3492C205.009 75.241 205.217 75.141 205.429 75.0453C205.484 75.0203 205.534 74.9954 205.588 74.9746C205.629 74.9579 205.671 74.9371 205.713 74.9163C205.908 74.8331 206.104 74.754 206.304 74.6749C206.329 74.6666 206.358 74.6541 206.383 74.6458C206.541 74.5875 206.703 74.5293 206.861 74.471C206.953 74.4419 207.045 74.4085 207.14 74.3794L210.737 73.2473C210.479 73.3264 210.229 73.418 209.979 73.5095C209.954 73.5179 209.925 73.5303 209.9 73.5386C209.659 73.6302 209.421 73.7301 209.184 73.8342C209.13 73.8592 209.076 73.8841 209.026 73.9049C208.814 74.0006 208.605 74.1006 208.401 74.2088C208.381 74.2213 208.356 74.2296 208.331 74.2421C208.11 74.3586 207.89 74.4793 207.677 74.6083C207.631 74.6333 207.586 74.6624 207.54 74.6874C207.427 74.754 207.319 74.8247 207.211 74.8955C207.04 75.0037 206.87 75.1161 206.703 75.2326C206.603 75.2992 206.508 75.37 206.412 75.4407C206.258 75.5531 206.104 75.6738 205.954 75.7903C205.862 75.8653 205.767 75.936 205.679 76.0109C205.525 76.14 205.375 76.269 205.226 76.4063C205.146 76.4771 205.063 76.5478 204.988 76.6228C204.797 76.8017 204.609 76.9891 204.426 77.1764C204.393 77.2097 204.36 77.2429 204.326 77.2762C204.11 77.5052 203.902 77.7382 203.698 77.9796C203.64 78.0462 203.586 78.117 203.531 78.1877C203.382 78.3708 203.236 78.554 203.094 78.7454C203.028 78.8328 202.965 78.9202 202.903 79.0118C202.761 79.2116 202.62 79.4156 202.487 79.6195C202.42 79.7194 202.353 79.8151 202.291 79.9192C202.254 79.9816 202.216 80.0398 202.179 80.1023C202.07 80.2812 201.966 80.4602 201.866 80.6392C201.841 80.6891 201.812 80.7349 201.783 80.7849C201.658 81.0179 201.533 81.251 201.417 81.4883C201.392 81.5382 201.371 81.5882 201.346 81.6381C201.255 81.8254 201.171 82.0127 201.084 82.2041C201.034 82.3165 200.988 82.4289 200.938 82.5454C200.876 82.6952 200.817 82.8409 200.759 82.9908C200.713 83.1073 200.672 83.228 200.626 83.3445C200.576 83.4777 200.53 83.6109 200.484 83.7441C200.393 84.0188 200.305 84.2977 200.222 84.5765C200.206 84.6389 200.181 84.7056 200.164 84.768C200.068 85.1093 199.981 85.4589 199.906 85.8085C199.868 85.9833 199.831 86.1623 199.798 86.3412C199.777 86.437 199.756 86.5369 199.739 86.6326C199.694 86.8865 199.656 87.1404 199.619 87.3943C199.615 87.4276 199.606 87.4608 199.602 87.49C199.565 87.7772 199.531 88.0685 199.502 88.364C199.494 88.4556 199.49 88.5471 199.481 88.6387C199.465 88.8427 199.448 89.0424 199.44 89.2505C199.436 89.3629 199.431 89.4795 199.427 89.596C199.423 89.7791 199.415 89.9623 199.415 90.1454C199.415 90.2703 199.415 90.391 199.415 90.5158C199.415 90.6948 199.419 90.8696 199.427 91.0486C199.431 91.1776 199.44 91.3025 199.444 91.4315C199.452 91.6063 199.465 91.7853 199.477 91.9642C199.486 92.0932 199.498 92.2223 199.51 92.3513C199.523 92.497 199.54 92.6426 199.556 92.7883C199.585 93.0297 199.615 93.2712 199.652 93.5126C199.673 93.6416 199.689 93.7664 199.71 93.8954C199.756 94.1618 199.806 94.4324 199.86 94.6987C199.881 94.7986 199.898 94.8985 199.918 94.9984C199.943 95.1066 199.968 95.2107 199.993 95.3189C200.039 95.5187 200.089 95.7184 200.139 95.9182C200.172 96.0389 200.206 96.1596 200.239 96.2803C200.305 96.5175 200.372 96.7548 200.447 96.9921C200.555 97.3375 200.672 97.6788 200.797 98.0118C200.897 98.2781 200.996 98.5445 201.105 98.8067C201.13 98.8692 201.155 98.9274 201.184 98.9898C201.255 99.1605 201.329 99.3228 201.404 99.4893C201.513 99.7307 201.625 99.9679 201.742 100.205C201.792 100.309 201.846 100.417 201.896 100.522C202.033 100.788 202.174 101.05 202.32 101.312C202.349 101.366 202.378 101.421 202.408 101.47C202.582 101.774 202.766 102.07 202.949 102.361C203.003 102.444 203.061 102.528 203.115 102.607C203.248 102.811 203.386 103.015 203.527 103.21C203.602 103.314 203.677 103.414 203.752 103.514C203.881 103.689 204.01 103.864 204.147 104.03C204.231 104.134 204.314 104.234 204.393 104.338C204.53 104.505 204.668 104.667 204.809 104.829C204.893 104.925 204.976 105.021 205.059 105.116C205.226 105.304 205.4 105.483 205.575 105.662C205.642 105.728 205.704 105.799 205.775 105.866C206.025 106.115 206.279 106.357 206.541 106.59C206.595 106.636 206.649 106.681 206.699 106.727C206.928 106.927 207.157 107.123 207.39 107.31C207.473 107.376 207.552 107.439 207.636 107.501C207.948 107.743 208.264 107.98 208.585 108.201C208.585 108.201 208.585 108.201 208.589 108.201C208.593 108.205 208.601 108.209 208.605 108.213C208.826 108.363 209.051 108.509 209.28 108.65C209.355 108.696 209.434 108.742 209.513 108.787C209.667 108.879 209.821 108.971 209.975 109.058C210.133 109.145 210.287 109.229 210.445 109.312C210.553 109.37 210.666 109.428 210.774 109.482C210.945 109.566 211.115 109.645 211.29 109.724C211.394 109.77 211.494 109.82 211.598 109.865C211.665 109.895 211.727 109.92 211.794 109.949C211.973 110.024 212.152 110.098 212.335 110.165C212.422 110.198 212.51 110.228 212.597 110.261C212.76 110.319 212.926 110.377 213.093 110.431C213.184 110.461 213.272 110.49 213.363 110.519C213.538 110.573 213.713 110.623 213.888 110.669C213.967 110.689 214.042 110.714 214.121 110.731C214.375 110.798 214.629 110.856 214.882 110.91C214.899 110.91 214.92 110.918 214.937 110.918C215.174 110.964 215.411 111.01 215.648 111.043C215.732 111.056 215.815 111.068 215.898 111.077C216.073 111.102 216.248 111.122 216.427 111.143C216.522 111.151 216.614 111.16 216.71 111.168C216.88 111.185 217.055 111.193 217.226 111.201C217.317 111.206 217.405 111.21 217.496 111.214C217.696 111.222 217.896 111.222 218.096 111.222C218.158 111.222 218.217 111.222 218.279 111.222C218.537 111.218 218.799 111.206 219.057 111.189C219.124 111.185 219.186 111.176 219.253 111.172C219.449 111.156 219.644 111.135 219.84 111.114C219.931 111.102 220.023 111.089 220.115 111.077C220.285 111.052 220.46 111.022 220.631 110.993C220.727 110.977 220.818 110.96 220.914 110.939C221.093 110.902 221.272 110.864 221.447 110.823C221.53 110.802 221.613 110.785 221.696 110.764C221.954 110.698 222.208 110.627 222.466 110.548L218.87 111.68C218.612 111.759 218.354 111.834 218.096 111.901C218.013 111.921 217.929 111.938 217.85 111.959C217.671 112.001 217.492 112.042 217.313 112.08C217.218 112.1 217.126 112.117 217.03 112.134C216.855 112.163 216.685 112.192 216.51 112.217C216.418 112.229 216.327 112.242 216.235 112.254C216.04 112.279 215.844 112.3 215.648 112.313C215.582 112.317 215.519 112.325 215.453 112.329C215.195 112.346 214.932 112.358 214.674 112.363C214.612 112.363 214.554 112.363 214.491 112.363C214.291 112.363 214.092 112.363 213.892 112.354C213.8 112.354 213.713 112.346 213.621 112.342C213.451 112.334 213.276 112.321 213.105 112.309C213.009 112.3 212.918 112.292 212.822 112.284C212.647 112.267 212.468 112.242 212.293 112.217C212.21 112.204 212.127 112.196 212.044 112.184C211.806 112.146 211.569 112.105 211.332 112.059C211.315 112.059 211.294 112.05 211.278 112.05C211.024 111.996 210.77 111.938 210.516 111.872C210.437 111.851 210.362 111.83 210.283 111.809C210.108 111.759 209.933 111.709 209.758 111.659C209.667 111.63 209.579 111.601 209.488 111.572C209.321 111.518 209.159 111.459 208.993 111.401C208.905 111.368 208.818 111.339 208.73 111.305C208.547 111.235 208.368 111.164 208.189 111.089C208.123 111.06 208.056 111.035 207.994 111.006C207.977 110.997 207.96 110.993 207.944 110.985C207.856 110.948 207.773 110.902 207.686 110.864C207.515 110.785 207.34 110.706 207.169 110.623C207.057 110.569 206.949 110.511 206.841 110.452C206.682 110.369 206.524 110.286 206.37 110.198C206.337 110.182 206.304 110.165 206.27 110.144C206.15 110.073 206.029 109.999 205.908 109.928C205.833 109.882 205.754 109.836 205.679 109.79C205.45 109.649 205.226 109.503 205.005 109.353C205.001 109.349 204.992 109.345 204.988 109.341C204.664 109.12 204.347 108.883 204.039 108.642C204.002 108.613 203.96 108.583 203.919 108.554C203.877 108.521 203.835 108.484 203.794 108.45C203.561 108.263 203.327 108.067 203.103 107.868C203.061 107.83 203.019 107.801 202.978 107.764C202.965 107.751 202.953 107.739 202.94 107.73C202.678 107.497 202.424 107.256 202.174 107.006C202.162 106.994 202.145 106.977 202.129 106.964C202.075 106.91 202.029 106.856 201.975 106.802C201.8 106.623 201.629 106.44 201.459 106.257C201.425 106.219 201.388 106.186 201.354 106.149C201.305 106.09 201.255 106.028 201.205 105.97C201.063 105.807 200.926 105.645 200.788 105.479C200.743 105.424 200.693 105.37 200.647 105.312C200.609 105.266 200.576 105.216 200.539 105.171C200.405 105 200.276 104.829 200.143 104.654C200.089 104.584 200.035 104.517 199.985 104.446C199.964 104.413 199.943 104.38 199.918 104.351C199.777 104.151 199.64 103.951 199.506 103.747C199.461 103.676 199.411 103.614 199.365 103.543C199.356 103.531 199.348 103.514 199.34 103.502C199.152 103.21 198.969 102.915 198.799 102.611C198.799 102.603 198.79 102.598 198.786 102.59C198.761 102.544 198.736 102.499 198.711 102.453C198.566 102.195 198.42 101.932 198.287 101.662C198.27 101.629 198.249 101.595 198.233 101.562C198.195 101.491 198.166 101.416 198.129 101.346C198.012 101.108 197.9 100.871 197.791 100.63C197.762 100.567 197.733 100.509 197.704 100.447C197.658 100.343 197.612 100.234 197.571 100.13C197.546 100.068 197.517 100.01 197.492 99.9471C197.392 99.7057 197.296 99.4602 197.204 99.2146C197.196 99.1938 197.192 99.173 197.184 99.1563C197.059 98.8192 196.942 98.4821 196.834 98.1366C196.797 98.0243 196.763 97.9077 196.73 97.7953L196.747 97.7787Z" fill="#FFAE00"/>
<path d="M222.503 110.521C231.426 107.708 236.026 97.0764 232.778 86.7749C229.53 76.4735 219.663 70.403 210.739 73.2163C201.816 76.0295 197.215 86.661 200.464 96.9625C203.712 107.264 213.579 113.334 222.503 110.521Z" fill="#FFD733"/>
<path d="M223.388 110.232C225.59 109.4 227.58 108.022 229.174 106.286C230.768 104.542 231.971 102.457 232.754 100.231C233.536 98.0038 233.907 95.6356 233.89 93.2757C233.873 90.9116 233.461 88.5559 232.708 86.3167C231.205 81.8424 228.237 77.8302 224.258 75.2705C222.273 73.9927 220.041 73.0895 217.706 72.7108C215.375 72.3403 212.961 72.511 210.722 73.2394C212.969 72.5443 215.379 72.4111 217.69 72.8148C220.004 73.2061 222.218 74.1093 224.179 75.387C228.117 77.9509 231.039 81.9423 232.508 86.3833C233.266 88.5975 233.686 90.9324 233.715 93.2757C233.744 95.6189 233.386 97.9663 232.62 100.185C231.859 102.399 230.668 104.476 229.099 106.216C227.538 107.964 225.578 109.366 223.388 110.232Z" fill="#EDB400"/>
<path d="M235.554 241.697C235.483 242.821 235.603 243.978 235.554 245.102L247.075 245.31C247.7 245.102 247.296 242.821 247.233 242.184C251.271 242.292 255.367 242.23 259.396 242.425C260.482 242.479 262.376 242.912 263.409 242.912H267.059C268.071 242.912 269.927 243.075 271.072 243.154C272.117 243.225 273.27 243.316 274.352 243.399C279.913 243.82 285.499 244.415 291.018 245.097C290.585 247.029 290.34 249.026 289.803 250.933L297.553 251.628C297.882 251.424 298.053 246.991 298.07 246.225C298.128 246.001 298.398 246.088 298.561 246.071C300.005 245.913 304.858 247.049 306.594 247.403C310.249 248.144 321.163 250.396 322.986 253.63C323.864 255.182 323.169 255.99 322.037 257.022C316.913 261.7 297.183 264.206 289.919 265.042C259.875 268.493 227.936 268.563 197.733 267.469C179.131 266.794 156.646 265.808 138.731 261.034C131.122 259.007 121.719 254.683 134.718 249.959C141.228 247.595 148.475 246.762 155.276 245.584C155.276 245.618 155.543 245.842 155.53 246.175C155.497 247.245 155.043 248.535 155.276 249.722L165.495 248.748C165.612 247.27 165.379 245.826 165.25 244.369C169.221 244.078 173.187 243.553 177.171 243.395C177.658 243.374 178.299 243.395 178.753 243.395H185.075C186.578 243.395 188.368 242.896 189.821 242.667C192.014 242.321 194.603 242.28 196.876 242.18C202.899 241.918 209.118 241.78 215.12 241.693C221.926 241.593 228.748 241.768 235.554 241.693V241.697Z" fill="#A0D92A"/>
<path d="M222.177 132.486C213.894 133.297 206.963 140.356 206.356 148.651C205.944 154.27 209.14 159.21 206.497 164.604C205.706 166.219 204.17 167.763 203.251 169.386C201.024 173.311 200.562 177.149 200.77 181.623C200.782 181.864 200.753 182.11 200.77 182.351C195.642 183.375 191.442 181.976 187.629 178.584C186.068 177.194 184.882 175.442 183.383 174.073C176.319 167.626 166.429 167.089 158.2 171.646C160.356 164.866 163.724 162.465 168.057 157.541C173.218 151.673 170.708 143.295 172.798 136.132C174.604 129.939 177.884 127.512 181.552 122.872C186.538 116.558 190.95 108.741 200.17 107.922C215.109 106.59 219.596 120.62 222.181 132.486H222.177Z" fill="#A0D92A"/>
<path d="M297.342 155.348C285.895 159.085 283.931 167.301 280.559 177.727C276.001 177.694 271.044 176.645 267.751 173.261C265.037 170.473 265.029 167.809 263.78 164.463C260.783 156.426 253.091 151.706 244.558 152.671C244.525 152.601 244.358 152.526 244.317 152.43C244.275 152.334 244.104 152.259 244.075 152.189C242.589 148.867 241.44 145.438 239.696 142.216C240.108 141.962 240.15 141.559 240.187 141.126C240.583 136.864 239.784 134.059 241.395 129.684C249.187 108.491 289.013 111.633 292.659 134.62C293.621 140.672 291.515 145.513 294.791 151.464C295.544 152.834 296.734 153.895 297.351 155.352L297.342 155.348Z" fill="#A0D92A"/>
<path d="M239.691 142.212C241.435 145.438 242.584 148.863 244.07 152.185L244.311 152.426C244.357 152.526 244.524 152.597 244.553 152.667C245.706 155.248 246.517 157.982 247.866 160.667C250.314 165.532 253.748 169.927 255.987 174.805C250.975 181.09 245.26 187.467 236.644 188.178C222.667 189.335 221.476 176.499 209.164 177.723C205.958 178.044 203.444 180.091 200.768 181.615C200.56 177.14 201.018 173.303 203.249 169.378C204.169 167.759 205.705 166.211 206.495 164.596C209.139 159.202 205.942 154.261 206.354 148.643C206.962 140.348 213.892 133.289 222.175 132.477C230.097 131.699 236.045 135.461 239.691 142.208V142.212Z" fill="#28BD3B"/>
<path d="M297.829 155.348L298.07 155.59C307.835 155.39 313.779 162.578 314.379 171.997C314.55 174.648 314.129 176.929 314.783 179.622C315.715 183.459 318.508 185.053 320.248 188.266C323.307 193.906 323.391 200.128 321.909 206.184C320.764 206.159 319.723 205.597 318.595 205.485C310.891 204.711 309.45 211.745 303.486 214.154C299.71 215.678 295.898 215.449 292.314 213.526C287.165 210.762 282.798 201.889 275.876 204.548C274.611 205.035 273.732 206.147 272.529 206.675C272.48 206.059 272.242 205.576 272.288 204.727C272.442 201.664 273.703 198.126 274.719 195.242C276.784 189.386 278.657 183.601 280.559 177.728C283.93 167.302 285.895 159.086 297.342 155.348C297.442 155.315 297.683 155.344 297.829 155.348Z" fill="#28BD3B"/>
<path d="M172.793 136.132C170.704 143.291 173.214 151.669 168.052 157.542C163.723 162.465 160.352 164.867 158.196 171.647C156.11 178.198 156.064 186.268 158.924 192.566C147.148 199.52 134.074 192.091 127.302 181.865C128.284 174.207 131.002 172.858 135.044 167.352C139.136 161.779 137.645 158.22 138.524 152.102C140.838 136.015 159.357 131.966 172.789 136.136L172.793 136.132Z" fill="#28BD3B"/>
<path d="M158.928 192.565C160.189 195.345 165.009 199.42 167.765 200.876C168.739 201.392 171.969 202.42 172.306 203.024C172.36 203.124 172.289 203.473 172.443 203.727C173.946 206.204 176.085 208.231 177.413 210.807C176.552 210.778 174.633 211.689 173.53 211.91C170.537 212.509 166.853 212.33 164.035 211.048C161.654 209.966 160.564 208.326 157.467 208.131C154.516 207.943 151.281 209.612 148.222 209.346C147.165 209.255 144.934 208.847 143.843 208.618C131.589 206.025 125.807 193.509 127.301 181.86C134.074 192.09 147.148 199.519 158.924 192.56L158.928 192.565Z" fill="#027D40"/>
<path d="M321.913 206.188C319.782 214.903 310.82 226.016 300.751 222.728C299.082 222.183 298.45 221.359 296.373 221.026C293.717 220.601 292.252 221.804 289.804 221.999C288.743 222.087 287.461 221.912 286.399 221.758C280.414 220.884 275.223 216.539 273.263 210.812C272.692 209.143 272.667 208.385 272.534 206.675C273.737 206.146 274.615 205.035 275.881 204.548C282.803 201.888 287.169 210.762 292.318 213.525C295.902 215.448 299.715 215.677 303.49 214.154C309.455 211.748 310.9 204.71 318.6 205.484C319.728 205.597 320.769 206.159 321.913 206.184V206.188Z" fill="#027D40"/>
<path d="M164.034 211.048C163.63 211.302 163.792 211.972 163.788 212.384C163.734 216.601 163.801 220.829 163.801 225.045C163.801 231.488 164.679 237.948 165.249 244.374C165.378 245.831 165.611 247.279 165.495 248.753L155.276 249.727C155.043 248.54 155.497 247.246 155.53 246.18C155.542 245.847 155.272 245.623 155.276 245.589C155.388 243.13 155.996 240.653 155.751 238.16L156.454 227.272L145.186 216.638L143.842 208.618C144.932 208.847 147.163 209.254 148.221 209.346C148.412 211.094 148.587 212.93 149.182 214.586C151.355 216.201 153.378 218.045 155.542 219.66C155.771 219.83 156.808 220.729 156.974 220.534L157.461 208.131C160.558 208.326 161.649 209.966 164.03 211.048H164.034Z" fill="#BE6632"/>
<path d="M300.748 222.727L298.313 244.503L298.559 246.077C298.396 246.093 298.126 246.006 298.067 246.231C298.051 246.997 297.88 251.429 297.551 251.633L289.801 250.938C290.342 249.028 290.587 247.03 291.016 245.103C291.819 241.507 292.952 237.965 293.451 234.29L287.07 226.298L286.392 221.749C287.453 221.903 288.735 222.078 289.797 221.991C289.926 222.761 289.884 224.276 290.163 224.908C290.479 225.616 292.76 227.693 293.439 228.442C293.963 229.025 294.001 229.986 294.904 229.778L296.365 221.021C298.442 221.354 299.075 222.178 300.744 222.723L300.748 222.727Z" fill="#BE6632"/>
<path d="M298.075 155.593L297.833 155.352C298.017 155.356 298.059 155.598 298.075 155.593Z" fill="#A0D92A"/>
<path d="M205.391 200.834L206.61 227.346C207.564 226.531 209.945 225.532 210.344 224.391C210.981 217.711 213.2 210.469 213.67 203.86C213.703 203.394 213.678 202.94 213.42 202.536C213.732 202.607 214.082 202.698 214.394 202.778C215.814 203.144 216.954 203.839 218.286 204.238L217.558 212.022L226.486 206.603L227.044 204.48C228.692 204.026 230.016 202.915 231.664 202.532C231.073 204.184 230.848 207.726 229.72 208.979L217.47 217.649L216.933 218.327L215.614 232.82L215.127 241.697C209.125 241.785 202.906 241.918 196.883 242.184C197.203 232.974 197.699 223.8 197.848 214.581L193.982 209.258C193.499 208.659 193.465 209.47 193.236 209.703C192.333 210.644 188.516 214.652 188.375 215.564C188.233 216.479 188.599 217.149 188.616 217.969C188.774 226.019 188.67 234.035 189.074 242.076L189.823 242.667C188.371 242.896 186.585 243.395 185.078 243.395H178.755C178.302 243.395 177.661 243.375 177.174 243.395L180.966 214.802C180.241 214.136 178.143 210.827 177.415 210.802C176.087 208.226 173.948 206.199 172.445 203.722C172.291 203.468 172.362 203.119 172.308 203.019C172.545 202.557 173.128 202.861 173.481 202.936C175.001 203.252 176.599 203.643 178.143 203.747C178.622 204.534 181.032 207.801 181.669 207.889C182.173 207.959 182.214 207.098 182.252 206.761C182.368 205.766 182.231 204.742 182.281 203.747C183.946 203.597 186.46 202.969 188.121 202.532L188.483 207.88C189.049 207.485 190.839 206.07 190.997 205.516C191.284 204.53 190.252 203.04 190.065 202.045C192.267 201.392 194.198 200.314 196.633 199.856C196.791 200.801 195.355 202.461 195.409 203.123C195.438 203.498 197.978 206.902 198.215 206.906C198.477 206.906 198.564 206.319 198.594 206.07C198.814 204.064 198.406 201.666 198.581 199.61C201.928 199.465 202.556 200.051 205.391 200.826V200.834ZM207.097 241.697C207.564 241.614 207.501 241.189 207.593 240.856C208.271 238.393 208.392 235.246 208.921 232.703C208.554 233.111 207.306 233.952 207.077 234.26C206.252 235.375 207.381 240.116 207.097 241.697Z" fill="#BE6632"/>
<path d="M268.397 193.292L269.129 207.401C270.286 206.702 270.986 205.166 272.289 204.725C272.247 205.57 272.484 206.053 272.53 206.673C272.667 208.38 272.688 209.137 273.258 210.81L269.841 214.082C269.179 215.23 269.795 218.327 269.854 219.692C270.182 227.521 270.615 235.342 271.073 243.162C269.929 243.083 268.068 242.921 267.061 242.921H263.41C262.374 242.921 260.484 242.488 259.397 242.434C259.959 239.266 259.893 236.028 260.13 232.828C260.779 224.137 261.583 215.513 261.841 206.806C261.974 202.299 261.799 197.791 262.074 193.296C264.401 192.668 265.108 192.276 267.743 192.867C268.118 192.951 268.338 193.284 268.397 193.296V193.292Z" fill="#BE6632"/>
<path d="M245.042 199.619L243.572 211.647C244.792 221.815 246.182 232.004 247.231 242.189C247.298 242.826 247.697 245.106 247.073 245.315L235.551 245.106C235.601 243.978 235.485 242.826 235.551 241.702C235.551 241.664 235.784 241.427 235.805 241.115C236.492 230.177 236.971 219.26 237.695 208.305C237.603 207.71 233.969 203.361 233.274 202.503C233.016 202.183 232.937 201.771 232.388 201.808C233.703 200.73 235.014 200.181 236.767 200.106C236.971 200.497 238.065 202.399 238.232 202.537C238.948 203.136 238.619 200.759 238.956 200.347C240.355 200.351 243.755 200.002 245.037 199.619H245.042Z" fill="#BE6632"/>
<path d="M200.768 182.348C201.355 190.505 206.758 198.114 213.747 202.097C214.076 202.284 214.525 202.176 214.388 202.779C214.076 202.7 213.726 202.605 213.414 202.538C210.741 201.939 208.057 201.564 205.384 200.836C202.546 200.062 201.917 199.471 198.575 199.62C197.8 199.654 197.368 199.724 196.627 199.862C194.192 200.32 192.26 201.398 190.058 202.051C189.513 202.213 188.73 202.376 188.11 202.538C186.449 202.979 183.935 203.604 182.27 203.753C181.101 203.857 179.319 203.832 178.133 203.753C176.584 203.649 174.986 203.258 173.471 202.942C173.117 202.867 172.53 202.563 172.297 203.025C171.96 202.421 168.73 201.393 167.756 200.877C165 199.421 160.18 195.346 158.919 192.566C156.059 186.268 156.105 178.198 158.19 171.647C166.42 167.089 176.314 167.626 183.373 174.073C184.872 175.443 186.058 177.195 187.619 178.585C191.432 181.977 195.632 183.376 200.76 182.352L200.768 182.348Z" fill="#62B529"/>
<path d="M255.986 174.809C258.15 179.524 258.238 184.956 256.028 189.809L252.581 194.995C251.582 195.107 250.221 196.656 249.205 197.338C248.352 197.913 245.83 199.382 245.039 199.619C243.752 200.002 240.356 200.356 238.957 200.347C238.416 200.347 237.621 200.069 236.768 200.106C235.015 200.181 233.704 200.73 232.389 201.808C232.073 202.066 231.994 201.6 231.661 202.537C230.008 202.92 228.684 204.031 227.04 204.485C224.151 205.279 221.142 205.092 218.282 204.243C216.95 203.848 215.81 203.148 214.39 202.782C214.524 202.179 214.074 202.287 213.749 202.1C206.761 198.117 201.358 190.508 200.771 182.351C200.754 182.109 200.783 181.864 200.771 181.622C203.443 180.099 205.961 178.051 209.167 177.731C221.479 176.503 222.67 189.343 236.647 188.186C245.268 187.474 250.979 181.098 255.99 174.813L255.986 174.809Z" fill="#027D40"/>
<path d="M244.554 152.672C253.091 151.706 260.779 156.426 263.776 164.463C265.025 167.809 265.033 170.473 267.747 173.262C271.039 176.646 275.997 177.694 280.555 177.728C278.653 183.6 276.784 189.381 274.715 195.242C272.675 194.393 270.498 193.839 268.392 193.294C268.334 193.277 268.113 192.948 267.739 192.865C265.1 192.278 264.392 192.665 262.069 193.294C261.932 193.331 261.724 193.256 261.582 193.294L261.341 193.535C258.115 194.384 255.851 194.63 252.583 194.996L256.03 189.81C258.236 184.957 258.152 179.522 255.988 174.81C253.749 169.936 250.315 165.537 247.867 160.671C246.518 157.987 245.707 155.252 244.554 152.672Z" fill="#62B529"/>
<path d="M244.311 152.43L244.068 152.188C244.102 152.263 244.269 152.334 244.311 152.43Z" fill="#62B529"/>
<path d="M182.281 203.752C182.231 204.747 182.368 205.77 182.252 206.765C182.214 207.098 182.173 207.964 181.669 207.893C181.032 207.806 178.622 204.538 178.144 203.752C179.33 203.831 181.111 203.856 182.281 203.752Z" fill="#027D40"/>
<path d="M261.343 193.539L261.585 193.297C261.514 193.318 261.418 193.522 261.343 193.539Z" fill="#BE6632"/>
</svg>
