<svg width="188" height="43" viewBox="0 0 188 43" fill="none" xmlns="http://www.w3.org/2000/svg">
<path d="M167.022 0.959961H21.1888C9.68287 0.959961 0.355469 10.2874 0.355469 21.7933C0.355469 33.2992 9.68287 42.6266 21.1888 42.6266H167.022C178.528 42.6266 187.855 33.2992 187.855 21.7933C187.855 10.2874 178.528 0.959961 167.022 0.959961Z" fill="#02B14F"/>
<path d="M38.8927 20.8556C38.6302 19.4806 37.4927 18.7222 36.1427 18.7222C34.3135 18.7222 32.9468 20.1348 32.9468 22.7139C32.9468 25.2931 34.3219 26.7056 36.1385 26.7056C37.4802 26.7056 38.6219 25.9598 38.8969 24.6014H40.5135C40.1677 26.7056 38.4635 28.1681 36.1302 28.1681C33.3719 28.1681 31.3594 26.1098 31.3594 22.7181C31.3594 19.3264 33.3844 17.2681 36.1302 17.2681C38.3719 17.2681 40.151 18.5931 40.5135 20.864H38.8969L38.8927 20.8556Z" fill="white"/>
<path d="M43.8469 28.0139H42.2969V17.4014H43.826V21.3514H43.926C44.301 20.493 45.0469 19.9513 46.2844 19.9513C47.9219 19.9513 49.0094 20.9681 49.0094 22.9514V28.0139H47.4594V23.1389C47.4594 21.9722 46.8218 21.2931 45.7552 21.2931C44.6885 21.2931 43.8469 22.018 43.8469 23.2888V28.0139Z" fill="white"/>
<path d="M50.8809 17.9057C50.8809 17.3974 51.3225 16.9766 51.86 16.9766C52.3975 16.9766 52.8392 17.3974 52.8392 17.9057C52.8392 18.4141 52.3933 18.8265 51.86 18.8265C51.3267 18.8265 50.8809 18.4099 50.8809 17.9057ZM51.0767 20.0557H52.6267V28.0141H51.0767V20.0557Z" fill="white"/>
<path d="M54.3342 25.7682C54.3342 23.9599 55.8801 23.5639 57.3842 23.3889C58.8134 23.2223 59.3967 23.2348 59.3967 22.6681V22.6307C59.3967 21.7307 58.8842 21.2056 57.8842 21.2056C56.8842 21.2056 56.2634 21.7515 56.0342 22.314L54.5759 21.9807C55.0926 20.5307 56.4217 19.9473 57.8592 19.9473C59.1217 19.9473 60.9467 20.4098 60.9467 22.7265V28.0098H59.4342V26.9224H59.3717C59.0759 27.5182 58.3342 28.1848 57.0176 28.1848C55.5051 28.1848 54.3301 27.3265 54.3301 25.7598L54.3342 25.7682ZM59.4009 25.1474V24.1223C59.1759 24.3431 57.9842 24.4806 57.4842 24.5473C56.5884 24.6681 55.8509 24.9639 55.8509 25.7889C55.8509 26.5556 56.4843 26.9515 57.3593 26.9515C58.6509 26.9515 59.4009 26.0932 59.4009 25.1474Z" fill="white"/>
<path d="M71.43 22.247C71.2467 21.7137 70.8051 21.1804 69.8384 21.1804C68.9592 21.1804 68.2925 21.6138 68.3009 22.2263C68.2967 22.7638 68.6759 23.0596 69.5509 23.2679L70.8134 23.5596C72.2759 23.8971 72.9884 24.5929 72.9884 25.7137C72.9884 27.1554 71.6551 28.1762 69.7342 28.1762C67.9467 28.1762 66.7759 27.3846 66.5176 25.9721L68.0134 25.7429C68.2009 26.5262 68.7967 26.9262 69.7217 26.9262C70.7384 26.9262 71.3967 26.4429 71.3967 25.8262C71.3967 25.3304 71.0384 24.9887 70.2717 24.8179L68.9259 24.5221C67.4342 24.1888 66.7509 23.4387 66.7509 22.3096C66.7509 20.9012 68.0259 19.9512 69.8217 19.9512C71.6175 19.9512 72.5092 20.7596 72.8342 21.9971L71.43 22.247Z" fill="white"/>
<path d="M74.3262 24.0889C74.3262 21.6431 75.7887 19.9555 78.0053 19.9555C79.8095 19.9555 81.5303 21.0805 81.5303 23.9555V24.5056H75.872C75.9137 26.0389 76.8053 26.9014 78.1303 26.9014C79.0095 26.9014 79.6845 26.5181 79.9637 25.7681L81.4303 26.0305C81.0761 27.3264 79.8512 28.1805 78.1137 28.1805C75.7678 28.1805 74.3262 26.5639 74.3262 24.0931V24.0889ZM80.0095 23.3431C80.0053 22.1264 79.2178 21.2347 78.0137 21.2347C76.8095 21.2347 75.9345 22.2139 75.872 23.3431H80.0053H80.0095ZM77.3512 18.9597L77.3095 17.9014C78.0386 17.8639 78.3136 17.7097 78.3095 17.3972C78.3136 17.0222 77.8345 16.8806 77.222 16.8806L77.2678 16.0264C78.8345 16.0264 79.6636 16.5597 79.6553 17.4056C79.6595 18.0847 79.1178 18.3806 78.572 18.4639V18.9597H77.3512Z" fill="white"/>
<path d="M88.6633 28.0137H87.1133V20.0553H88.6008V21.3512H88.7008C89.0675 20.5054 89.8508 19.9512 91.0466 19.9512C92.6758 19.9512 93.755 20.9804 93.755 22.9513V28.0137H92.2049V23.1387C92.2049 21.9846 91.5675 21.2929 90.5175 21.2929C89.4675 21.2929 88.6633 22.0178 88.6633 23.2887V28.0137Z" fill="white"/>
<path d="M95.4629 24.0722C95.4629 21.5972 96.9296 19.9514 99.1712 19.9514C101.413 19.9514 102.88 21.5931 102.88 24.0722C102.88 26.5514 101.413 28.1764 99.1712 28.1764C96.9296 28.1764 95.4629 26.5347 95.4629 24.0722ZM101.838 19.3264H100.471L99.1587 18.3014L97.8546 19.3264H96.4837L98.6337 17.6306H99.6921L101.842 19.3264H101.838ZM101.321 24.0681C101.321 22.5431 100.638 21.2514 99.1796 21.2514C97.7212 21.2514 97.0296 22.5472 97.0296 24.0681C97.0296 25.5889 97.7129 26.8764 99.1796 26.8764C100.646 26.8764 101.321 25.5972 101.321 24.0681ZM101.038 16.0306C101.038 16.5889 100.567 17.1514 99.9254 17.1514C99.2379 17.1514 98.9962 16.6639 98.4545 16.6639C98.1837 16.6639 97.9254 16.9222 97.9254 17.1764L97.3046 17.0098C97.3046 16.4556 97.7587 15.8806 98.4045 15.8806C98.9712 15.8806 99.3545 16.3472 99.8754 16.3472C100.138 16.3472 100.4 16.0847 100.4 15.8306L101.042 16.0306H101.038Z" fill="white"/>
<path d="M110.019 28.0139H108.469V17.4014H110.019V28.0139Z" fill="white"/>
<path d="M120.83 19.6724C120.826 21.1974 120.334 22.039 118.709 22.1599V28.014H117.184V26.6348H117.101C116.734 27.4848 115.922 28.1182 114.722 28.1182C113.193 28.1182 112.109 27.0932 112.109 25.1182V20.0557H113.659V24.9307C113.659 26.0141 114.322 26.7099 115.28 26.7099C116.151 26.7099 117.155 26.0682 117.151 24.7141V20.0557H118.705V21.2557C119.626 21.1474 119.676 20.6474 119.68 19.6724H120.826H120.83ZM114.551 29.8391C114.551 29.3308 114.993 28.9098 115.53 28.9098C116.068 28.9098 116.509 29.3308 116.509 29.8391C116.509 30.3474 116.064 30.7599 115.53 30.7599C114.997 30.7599 114.551 30.3433 114.551 29.8391Z" fill="white"/>
<path d="M121.238 24.0721C121.238 21.6429 122.688 19.9512 124.934 19.9512C126.742 19.9512 128.055 21.0179 128.217 22.6262H126.709C126.542 21.8804 125.942 21.2596 124.959 21.2596C123.663 21.2596 122.805 22.3304 122.805 24.0387C122.805 25.747 123.651 26.8679 124.959 26.8679C125.847 26.8679 126.513 26.3595 126.709 25.5012H128.217C128.047 27.0512 126.83 28.1803 124.947 28.1803C122.634 28.1803 121.238 26.4762 121.238 24.0762V24.0721Z" fill="white"/>
<path d="M135.288 28.0137H133.738V20.0553H135.226V21.3512H135.326C135.692 20.5054 136.476 19.9512 137.672 19.9512C139.301 19.9512 140.38 20.9804 140.38 22.9513V28.0137H138.83V23.1387C138.83 21.9846 138.192 21.2929 137.142 21.2929C136.092 21.2929 135.288 22.0178 135.288 23.2887V28.0137Z" fill="white"/>
<path d="M142.076 25.7685C142.076 23.9601 143.622 23.5642 145.126 23.3892C146.556 23.2225 147.139 23.235 147.139 22.6684V22.6309C147.139 21.7309 146.626 21.2059 145.626 21.2059C144.626 21.2059 144.006 21.7518 143.776 22.3143L142.318 21.9809C142.835 20.5309 144.164 19.9475 145.601 19.9475C146.864 19.9475 148.689 20.4101 148.689 22.7268V28.0101H147.176V26.9226H147.114C146.818 27.5185 146.076 28.185 144.76 28.185C143.247 28.185 142.072 27.3268 142.072 25.7601L142.076 25.7685ZM143.481 16.606H145.114L146.322 18.9934H145.085L143.485 16.606H143.481ZM147.143 25.1435V24.1184C146.918 24.3392 145.726 24.4767 145.226 24.5434C144.331 24.6642 143.593 24.96 143.593 25.785C143.593 26.5517 144.226 26.9476 145.101 26.9476C146.393 26.9476 147.143 26.0893 147.143 25.1435Z" fill="white"/>
<path d="M150.384 30.8302L150.755 29.5594C151.605 29.7927 152.159 29.7052 152.555 28.6469L152.746 28.1177L149.834 20.0552H151.492L153.509 26.2302H153.592L155.609 20.0552H157.271L153.992 29.0761C153.53 30.3302 152.721 30.9968 151.442 30.9968C150.976 30.9968 150.571 30.9094 150.384 30.826V30.8302Z" fill="white"/>
</svg>
