<svg width="226" height="59" viewBox="0 0 226 59" fill="none" xmlns="http://www.w3.org/2000/svg">
<path d="M196.116 0.887695H29.9534C13.9348 0.887695 0.949219 13.8732 0.949219 29.8918C0.949219 45.9104 13.9348 58.896 29.9534 58.896H196.116C212.134 58.896 225.12 45.9104 225.12 29.8918C225.12 13.8732 212.134 0.887695 196.116 0.887695Z" fill="#ABD64F"/>
<path d="M28.8536 19.8081C28.5911 18.4331 27.4536 17.6749 26.1036 17.6749C24.2745 17.6749 22.9078 19.0873 22.9078 21.6665C22.9078 24.2456 24.2828 25.6582 26.0995 25.6582C27.4411 25.6582 28.5828 24.9123 28.8578 23.554H30.4745C30.1286 25.6581 28.4245 27.1207 26.0911 27.1207C23.3328 27.1207 21.3203 25.0623 21.3203 21.6706C21.3203 18.279 23.3453 16.2207 26.0911 16.2207C28.3328 16.2207 30.112 17.5457 30.4745 19.8165H28.8578L28.8536 19.8081Z" fill="#005339"/>
<path d="M33.8078 26.9709H32.2578V16.3584H33.7869V20.3084H33.8869C34.2619 19.4501 35.0078 18.9084 36.2453 18.9084C37.8828 18.9084 38.9703 19.9251 38.9703 21.9084V26.9709H37.4203V22.0959C37.4203 20.9292 36.7828 20.2501 35.7161 20.2501C34.6494 20.2501 33.8078 20.9751 33.8078 22.246V26.9709Z" fill="#005339"/>
<path d="M40.8379 16.858C40.8379 16.3496 41.2795 15.9287 41.817 15.9287C42.3545 15.9287 42.7962 16.3496 42.7962 16.858C42.7962 17.3663 42.3504 17.7788 41.817 17.7788C41.2837 17.7788 40.8379 17.3621 40.8379 16.858ZM41.0337 19.0079H42.5837V26.9662H41.0337V19.0079Z" fill="#005339"/>
<path d="M44.2913 24.7202C44.2913 22.9119 45.8371 22.5161 47.3413 22.3411C48.7704 22.1744 49.3537 22.1869 49.3537 21.6203V21.5827C49.3537 20.6827 48.8413 20.1578 47.8413 20.1578C46.8413 20.1578 46.2204 20.7036 45.9913 21.2661L44.5329 20.9327C45.0496 19.4827 46.3788 18.8994 47.8163 18.8994C49.0788 18.8994 50.9038 19.3619 50.9038 21.6785V26.962H49.3913V25.8744H49.3288C49.0329 26.4702 48.2913 27.1369 46.9746 27.1369C45.4621 27.1369 44.2871 26.2786 44.2871 24.7119L44.2913 24.7202ZM49.3579 24.0994V23.0744C49.1329 23.2953 47.9413 23.4328 47.4413 23.4994C46.5454 23.6203 45.808 23.9161 45.808 24.7411C45.808 25.5078 46.4413 25.9036 47.3163 25.9036C48.608 25.9036 49.3579 25.0452 49.3579 24.0994Z" fill="#005339"/>
<path d="M61.3871 21.1992C61.2037 20.6658 60.7621 20.1325 59.7954 20.1325C58.9163 20.1325 58.2496 20.5658 58.258 21.1783C58.2538 21.7158 58.633 22.0116 59.508 22.22L60.7704 22.5116C62.2329 22.8491 62.9455 23.545 62.9455 24.6659C62.9455 26.1075 61.6121 27.1283 59.6913 27.1283C57.9038 27.1283 56.7329 26.3366 56.4746 24.9241L57.9704 24.6949C58.1579 25.4783 58.7538 25.8783 59.6788 25.8783C60.6954 25.8783 61.3538 25.3949 61.3538 24.7783C61.3538 24.2824 60.9954 23.9408 60.2288 23.77L58.883 23.4741C57.3913 23.1408 56.7079 22.3908 56.7079 21.2616C56.7079 19.8533 57.9829 18.9033 59.7787 18.9033C61.5746 18.9033 62.4662 19.7116 62.7912 20.9491L61.3871 21.1992Z" fill="#005339"/>
<path d="M64.2871 23.041C64.2871 20.5951 65.7496 18.9077 67.9663 18.9077C69.7704 18.9077 71.4912 20.0326 71.4912 22.9076V23.4576H65.8329C65.8746 24.991 66.7663 25.8535 68.0913 25.8535C68.9704 25.8535 69.6455 25.4701 69.9246 24.7201L71.3912 24.9827C71.0371 26.2785 69.8121 27.1326 68.0746 27.1326C65.7288 27.1326 64.2871 25.516 64.2871 23.0451V23.041ZM69.9704 22.2951C69.9663 21.0784 69.1788 20.1868 67.9746 20.1868C66.7704 20.1868 65.8954 21.1659 65.8329 22.2951H69.9663H69.9704ZM67.3121 17.9118L67.2704 16.8535C67.9996 16.816 68.2746 16.6618 68.2704 16.3493C68.2746 15.9743 67.7954 15.8326 67.1829 15.8326L67.2287 14.9785C68.7954 14.9785 69.6246 15.5118 69.6162 16.3576C69.6204 17.0368 69.0788 17.3326 68.5329 17.416V17.9118H67.3121Z" fill="#005339"/>
<path d="M81.6332 21.1992C81.4499 20.6658 81.0082 20.1325 80.0415 20.1325C79.1624 20.1325 78.4957 20.5658 78.504 21.1783C78.4999 21.7158 78.879 22.0116 79.754 22.22L81.0166 22.5116C82.4791 22.8491 83.1915 23.545 83.1915 24.6659C83.1915 26.1075 81.8582 27.1283 79.9374 27.1283C78.1499 27.1283 76.979 26.3366 76.7207 24.9241L78.2165 24.6949C78.404 25.4783 78.9999 25.8783 79.9249 25.8783C80.9416 25.8783 81.5999 25.3949 81.5999 24.7783C81.5999 24.2824 81.2415 23.9408 80.4749 23.77L79.129 23.4741C77.6374 23.1408 76.9541 22.3908 76.9541 21.2616C76.9541 19.8533 78.2291 18.9033 80.0249 18.9033C81.8207 18.9033 82.7124 19.7116 83.0374 20.9491L81.6332 21.1992Z" fill="#005339"/>
<path d="M93.6154 18.624C93.6112 20.149 93.1195 20.9907 91.4945 21.1115V26.9656H89.9696V25.5865H89.8862C89.5195 26.4365 88.707 27.0698 87.507 27.0698C85.9779 27.0698 84.8945 26.0448 84.8945 24.0698V19.0073H86.4445V23.8823C86.4445 24.9656 87.107 25.6615 88.0654 25.6615C88.9362 25.6615 89.9404 25.0198 89.9362 23.6656V19.0073H91.4903V20.2073C92.4112 20.0989 92.4612 19.599 92.4654 18.624H93.6112H93.6154ZM87.3362 28.7906C87.3362 28.2823 87.7778 27.8615 88.3153 27.8615C88.8528 27.8615 89.2946 28.2823 89.2946 28.7906C89.2946 29.299 88.8487 29.7115 88.3153 29.7115C87.782 29.7115 87.3362 29.2948 87.3362 28.7906Z" fill="#005339"/>
<path d="M103.286 19.0079H104.84V26.9662H103.315V25.5871H103.232C102.865 26.4371 102.049 27.0704 100.853 27.0704C99.3236 27.0704 98.2402 26.0454 98.2402 24.0704V19.0079H99.7902V23.8829C99.7902 24.9662 100.453 25.6621 101.411 25.6621C102.282 25.6621 103.286 25.0204 103.282 23.6662V19.0079H103.286ZM100.961 17.9079L100.919 16.8496C101.649 16.8121 101.924 16.6579 101.919 16.3454C101.924 15.9704 101.444 15.8287 100.832 15.8287L100.878 14.9746C102.44 14.9746 103.274 15.5079 103.265 16.3537C103.269 17.0329 102.728 17.3287 102.182 17.412V17.9079H100.957H100.961Z" fill="#005339"/>
<path d="M108.466 26.9697H106.916V19.0114H108.404V20.3072H108.504C108.87 19.4613 109.654 18.9072 110.849 18.9072C112.479 18.9072 113.558 19.9364 113.558 21.9072V26.9697H112.008V22.0947C112.008 20.9405 111.37 20.2489 110.32 20.2489C109.27 20.2489 108.466 20.9739 108.466 22.2447V26.9697Z" fill="#005339"/>
<path d="M115.579 28.3159L116.912 27.7658C117.187 28.22 117.692 28.87 118.979 28.87C120.154 28.87 121.012 28.3324 121.012 27.0824V25.5158H120.912C120.633 26.0241 120.067 26.8492 118.608 26.8492C116.729 26.8492 115.283 25.495 115.283 22.9575C115.283 20.42 116.7 18.9033 118.621 18.9033C120.104 18.9033 120.654 19.8033 120.925 20.2991H121.037V19.0075H122.554V27.1408C122.554 29.1867 120.992 30.1158 118.962 30.1158C117.062 30.1158 116 29.2867 115.579 28.3117V28.3159ZM121.025 22.9366C121.025 21.3241 120.3 20.22 118.946 20.22C117.592 20.22 116.842 21.4075 116.842 22.9366C116.842 24.4658 117.562 25.5616 118.946 25.5616C120.329 25.5616 121.025 24.5783 121.025 22.9366Z" fill="#005339"/>
<path d="M130.036 26.9709H128.486V16.3584H130.016V20.3084H130.116C130.491 19.4501 131.236 18.9084 132.474 18.9084C134.111 18.9084 135.199 19.9251 135.199 21.9084V26.9709H133.649V22.0959C133.649 20.9292 133.011 20.2501 131.945 20.2501C130.878 20.2501 130.036 20.9751 130.036 22.246V26.9709Z" fill="#005339"/>
<path d="M136.908 23.0241C136.908 20.5491 138.375 18.9033 140.617 18.9033C142.858 18.9033 144.325 20.5449 144.325 23.0241C144.325 25.5033 142.858 27.1283 140.617 27.1283C138.375 27.1283 136.908 25.4866 136.908 23.0241ZM140.612 16.6658L139.55 18.0533H138.146V17.9742L139.971 15.7783H141.262L143.083 17.9742V18.0533H141.683L140.617 16.6658H140.612ZM142.762 23.0199C142.762 21.4949 142.079 20.2033 140.621 20.2033C139.162 20.2033 138.471 21.4991 138.471 23.0199C138.471 24.5408 139.154 25.8283 140.621 25.8283C142.087 25.8283 142.762 24.5491 142.762 23.0199ZM139.637 28.7908C139.637 28.2825 140.079 27.8617 140.617 27.8617C141.154 27.8617 141.596 28.2825 141.596 28.7908C141.596 29.2991 141.15 29.7116 140.617 29.7116C140.083 29.7116 139.637 29.295 139.637 28.7908Z" fill="#005339"/>
<path d="M149.553 23.0241C149.553 20.5949 151.003 18.9033 153.249 18.9033C155.057 18.9033 156.369 19.97 156.532 21.5783H155.024C154.857 20.8325 154.257 20.2116 153.274 20.2116C151.978 20.2116 151.119 21.2825 151.119 22.9908C151.119 24.6992 151.965 25.8199 153.274 25.8199C154.161 25.8199 154.828 25.3117 155.024 24.4533H156.532C156.361 26.0033 155.144 27.1325 153.261 27.1325C150.949 27.1325 149.553 25.4283 149.553 23.0283V23.0241Z" fill="#005339"/>
<path d="M163.237 19.0079H164.791V26.9662H163.266V25.5871H163.183C162.816 26.4371 162 27.0704 160.804 27.0704C159.275 27.0704 158.191 26.0454 158.191 24.0704V19.0079H159.741V23.8829C159.741 24.9662 160.404 25.6621 161.362 25.6621C162.233 25.6621 163.237 25.0204 163.233 23.6662V19.0079H163.237ZM160.912 17.9079L160.87 16.8496C161.6 16.8121 161.875 16.6579 161.87 16.3454C161.875 15.9704 161.395 15.8287 160.783 15.8287L160.829 14.9746C162.391 14.9746 163.225 15.5079 163.216 16.3537C163.22 17.0329 162.679 17.3287 162.133 17.412V17.9079H160.908H160.912Z" fill="#005339"/>
<path d="M166.49 24.7202C166.49 22.9119 168.036 22.5161 169.54 22.3411C170.97 22.1744 171.553 22.1869 171.553 21.6203V21.5827C171.553 20.6827 171.04 20.1578 170.04 20.1578C169.04 20.1578 168.42 20.7036 168.19 21.2661L166.732 20.9327C167.249 19.4827 168.578 18.8994 170.015 18.8994C171.278 18.8994 173.103 19.3619 173.103 21.6785V26.962H171.59V25.8744H171.528C171.232 26.4702 170.49 27.1369 169.174 27.1369C167.661 27.1369 166.486 26.2786 166.486 24.7119L166.49 24.7202ZM171.557 24.0994V23.0744C171.332 23.2953 170.14 23.4328 169.64 23.4994C168.745 23.6203 168.007 23.9161 168.007 24.7411C168.007 25.5078 168.64 25.9036 169.515 25.9036C170.807 25.9036 171.557 25.0452 171.557 24.0994Z" fill="#005339"/>
<path d="M179.148 16.3577H180.698V20.2993H180.79C181.065 19.8077 181.598 18.9036 183.073 18.9036C184.994 18.9036 186.415 20.4203 186.415 23.0036C186.415 25.5869 185.015 27.1244 183.09 27.1244C181.64 27.1244 181.069 26.2368 180.79 25.7285H180.661V26.966H179.148V16.3535V16.3577ZM182.744 25.8036C184.128 25.8036 184.853 24.5869 184.853 22.9911C184.853 21.3953 184.148 20.2244 182.744 20.2244C181.34 20.2244 180.665 21.3286 180.665 22.9911C180.665 24.6536 181.411 25.8036 182.744 25.8036Z" fill="#005339"/>
<path d="M187.78 24.7202C187.78 22.9119 189.325 22.5161 190.83 22.3411C192.259 22.1744 192.842 22.1869 192.842 21.6203V21.5827C192.842 20.6827 192.33 20.1578 191.33 20.1578C190.33 20.1578 189.709 20.7036 189.48 21.2661L188.021 20.9327C188.538 19.4827 189.867 18.8994 191.305 18.8994C192.567 18.8994 194.392 19.3619 194.392 21.6785V26.962H192.88V25.8744H192.817C192.521 26.4702 191.78 27.1369 190.463 27.1369C188.95 27.1369 187.775 26.2786 187.775 24.7119L187.78 24.7202ZM192.846 24.0994V23.0744C192.621 23.2953 191.43 23.4328 190.93 23.4994C190.034 23.6203 189.296 23.9161 189.296 24.7411C189.296 25.5078 189.93 25.9036 190.805 25.9036C192.096 25.9036 192.846 25.0452 192.846 24.0994ZM190.338 28.7952C190.338 28.2869 190.78 27.8661 191.317 27.8661C191.855 27.8661 192.296 28.2869 192.296 28.7952C192.296 29.3036 191.85 29.7161 191.317 29.7161C190.784 29.7161 190.338 29.2994 190.338 28.7952Z" fill="#005339"/>
<path d="M198.003 26.9697H196.453V19.0114H197.941V20.3072H198.041C198.407 19.4613 199.191 18.9072 200.386 18.9072C202.016 18.9072 203.095 19.9364 203.095 21.9072V26.9697H201.545V22.0947C201.545 20.9405 200.907 20.2489 199.857 20.2489C198.807 20.2489 198.003 20.9739 198.003 22.2447V26.9697Z" fill="#005339"/>
<path d="M32.6543 41.0368C32.6543 38.6076 34.1043 36.916 36.3501 36.916C38.1585 36.916 39.471 37.9826 39.6335 39.591H38.1251C37.9585 38.8451 37.3585 38.2243 36.3752 38.2243C35.0793 38.2243 34.221 39.2952 34.221 41.0035C34.221 42.7119 35.0668 43.8327 36.3752 43.8327C37.2627 43.8327 37.9293 43.3244 38.1251 42.466H39.6335C39.4626 44.016 38.246 45.1452 36.3626 45.1452C34.0501 45.1452 32.6543 43.441 32.6543 41.041V41.0368Z" fill="#005339"/>
<path d="M42.8411 44.9788H41.291V34.3662H42.8202V38.3163H42.9202C43.2952 37.458 44.041 36.9163 45.2785 36.9163C46.916 36.9163 48.0035 37.9329 48.0035 39.9162V44.9788H46.4535V40.1037C46.4535 38.9371 45.816 38.2579 44.7494 38.2579C43.6827 38.2579 42.8411 38.9829 42.8411 40.2538V44.9788Z" fill="#005339"/>
<path d="M49.7129 41.0368C49.7129 38.5618 51.1795 36.916 53.4212 36.916C55.6628 36.916 57.1295 38.5576 57.1295 41.0368C57.1295 43.516 55.6628 45.141 53.4212 45.141C51.1795 45.141 49.7129 43.4993 49.7129 41.0368ZM55.567 41.0326C55.567 39.5076 54.8837 38.216 53.4254 38.216C51.967 38.216 51.2754 39.5118 51.2754 41.0326C51.2754 42.5535 51.9587 43.841 53.4254 43.841C54.892 43.841 55.567 42.5618 55.567 41.0326Z" fill="#005339"/>
<path d="M70.0372 37.8199C69.7747 36.4449 68.6372 35.6866 67.2872 35.6866C65.4581 35.6866 64.0914 37.099 64.0914 39.6782C64.0914 42.2573 65.4664 43.6699 67.2831 43.6699C68.6247 43.6699 69.7664 42.924 70.0414 41.5657H71.6581C71.3122 43.6699 69.6081 45.1324 67.2747 45.1324C64.5164 45.1324 62.5039 43.074 62.5039 39.6824C62.5039 36.2907 64.5289 34.2324 67.2747 34.2324C69.5164 34.2324 71.2956 35.5574 71.6581 37.8282H70.0414L70.0372 37.8199Z" fill="#005339"/>
<path d="M74.9875 44.9788H73.4375V34.3662H74.9667V38.3163H75.0667C75.4417 37.458 76.1875 36.9163 77.425 36.9163C79.0625 36.9163 80.15 37.9329 80.15 39.9162V44.9788H78.6V40.1037C78.6 38.9371 77.9625 38.2579 76.8959 38.2579C75.8292 38.2579 74.9875 38.9829 74.9875 40.2538V44.9788Z" fill="#005339"/>
<path d="M90.9455 36.6377C90.9413 38.1627 90.4496 39.0043 88.8246 39.1252V44.9794H87.2996V43.6002H87.2163C86.8497 44.4502 86.0371 45.0835 84.8371 45.0835C83.308 45.0835 82.2246 44.0585 82.2246 42.0835V37.021H83.7746V41.896C83.7746 42.9793 84.4371 43.6752 85.3954 43.6752C86.2663 43.6752 87.2705 43.0335 87.2663 41.6793V37.021H88.8205V38.2209C89.7413 38.1126 89.7913 37.6127 89.7955 36.6377H90.9413H90.9455Z" fill="#005339"/>
<path d="M99.5616 36.4661C99.5616 37.6619 99.2032 38.5161 98.3241 38.8953C98.6157 39.4953 98.7741 40.2202 98.7741 41.0369C98.7741 43.4994 97.3074 45.1411 95.0658 45.1411C92.8241 45.1411 91.3574 43.4994 91.3574 41.0369C91.3574 38.5744 92.8241 36.9161 95.0658 36.9161C96.2116 36.9161 97.1532 37.3411 97.8032 38.0911C98.2741 37.8328 98.3699 37.2452 98.3699 36.4619H99.5657L99.5616 36.4661ZM97.2074 41.0327C97.2074 39.5077 96.5241 38.2161 95.0658 38.2161C93.6074 38.2161 92.9158 39.5119 92.9158 41.0327C92.9158 42.5536 93.5991 43.8411 95.0658 43.8411C96.5324 43.8411 97.2074 42.5619 97.2074 41.0327Z" fill="#005339"/>
<path d="M102.15 44.9786H100.6V37.0202H102.087V38.3161H102.187C102.554 37.4702 103.337 36.916 104.533 36.916C106.162 36.916 107.241 37.9452 107.241 39.916V44.9786H105.691V40.1035C105.691 38.9493 105.054 38.2577 104.004 38.2577C102.954 38.2577 102.15 38.9827 102.15 40.2535V44.9786Z" fill="#005339"/>
<path d="M109.263 46.3286L110.596 45.7785C110.871 46.2327 111.375 46.8826 112.663 46.8826C113.838 46.8826 114.696 46.3451 114.696 45.0951V43.5285H114.596C114.317 44.0368 113.75 44.8619 112.292 44.8619C110.413 44.8619 108.967 43.5077 108.967 40.9702C108.967 38.4327 110.383 36.916 112.304 36.916C113.788 36.916 114.338 37.8161 114.608 38.3119H114.721V37.0202H116.238V45.1535C116.238 47.1994 114.675 48.1285 112.646 48.1285C110.746 48.1285 109.683 47.2994 109.263 46.3244V46.3286ZM114.708 40.9493C114.708 39.3368 113.983 38.2326 112.629 38.2326C111.275 38.2326 110.525 39.4202 110.525 40.9493C110.525 42.4785 111.246 43.5743 112.629 43.5743C114.013 43.5743 114.708 42.591 114.708 40.9493Z" fill="#005339"/>
<path d="M125.887 38.2623H124.253V42.6415C124.253 43.5373 124.703 43.704 125.208 43.704C125.458 43.704 125.649 43.6581 125.753 43.6373L126.033 44.9165C125.849 44.9832 125.52 45.079 125.028 45.0832C123.808 45.1082 122.703 44.4082 122.708 42.9623V38.2623H121.541V37.0207H122.708V35.1123H124.258V37.0207H125.891V38.2623H125.887Z" fill="#005339"/>
<path d="M127.596 37.0203H129.092V38.2828H129.175C129.467 37.4286 130.262 36.8994 131.196 36.8994C131.392 36.8994 131.7 36.9161 131.854 36.937V38.4203C131.729 38.3828 131.367 38.3286 131.046 38.3286C129.946 38.3286 129.146 39.0786 129.146 40.1202V44.9828H127.596V37.0244V37.0203Z" fill="#005339"/>
<path d="M131.779 33.5703H133.413L134.621 35.9578H133.383L131.783 33.5703H131.779ZM133.2 37.0203H134.75V44.9787H133.2V37.0203Z" fill="#005339"/>
<path d="M138.378 44.9786H136.828V37.0202H138.316V38.3161H138.416C138.782 37.4702 139.566 36.916 140.761 36.916C142.391 36.916 143.47 37.9452 143.47 39.916V44.9786H141.92V40.1035C141.92 38.9493 141.282 38.2577 140.232 38.2577C139.182 38.2577 138.378 38.9827 138.378 40.2535V44.9786Z" fill="#005339"/>
<path d="M147.087 44.9788H145.537V34.3662H147.066V38.3163H147.166C147.541 37.458 148.287 36.9163 149.525 36.9163C151.162 36.9163 152.25 37.9329 152.25 39.9162V44.9788H150.7V40.1037C150.7 38.9371 150.062 38.2579 148.995 38.2579C147.929 38.2579 147.087 38.9829 147.087 40.2538V44.9788Z" fill="#005339"/>
<path d="M161.958 38.5163H162.041L164.579 34.3662H166.433L163.129 39.6705L166.454 44.9746H164.587L162.037 40.8829H161.954L159.404 44.9746H157.537L160.92 39.6705L157.558 34.3662H159.412L161.949 38.5163H161.958Z" fill="#005339"/>
<path d="M167.52 42.729C167.52 40.9207 169.066 40.5249 170.57 40.3499C171.999 40.1832 172.582 40.1957 172.582 39.629V39.5915C172.582 38.6915 172.07 38.1665 171.07 38.1665C170.07 38.1665 169.449 38.7123 169.22 39.2748L167.761 38.9416C168.278 37.4916 169.607 36.9082 171.045 36.9082C172.307 36.9082 174.132 37.3707 174.132 39.6873V44.9707H172.62V43.8832H172.557C172.261 44.479 171.52 45.1457 170.203 45.1457C168.691 45.1457 167.516 44.2873 167.516 42.7207L167.52 42.729ZM172.586 42.1082V41.0832C172.361 41.304 171.17 41.4416 170.67 41.5082C169.774 41.6291 169.036 41.9249 169.036 42.7499C169.036 43.5165 169.67 43.9124 170.545 43.9124C171.836 43.9124 172.586 43.054 172.586 42.1082Z" fill="#005339"/>
<path d="M177.745 44.9786H176.195V37.0202H177.683V38.3161H177.783C178.15 37.4702 178.933 36.916 180.129 36.916C181.758 36.916 182.837 37.9452 182.837 39.916V44.9786H181.287V40.1035C181.287 38.9493 180.649 38.2577 179.599 38.2577C178.549 38.2577 177.745 38.9827 177.745 40.2535V44.9786Z" fill="#005339"/>
<path d="M186.454 44.9788H184.904V34.3662H186.433V38.3163H186.533C186.908 37.458 187.654 36.9163 188.892 36.9163C190.529 36.9163 191.617 37.9329 191.617 39.9162V44.9788H190.067V40.1037C190.067 38.9371 189.429 38.2579 188.363 38.2579C187.296 38.2579 186.454 38.9829 186.454 40.2538V44.9788Z" fill="#005339"/>
</svg>
