<svg width="188" height="43" viewBox="0 0 188 43" fill="none" xmlns="http://www.w3.org/2000/svg">
<path d="M166.967 0.905273H21.1341C9.62818 0.905273 0.300781 10.2327 0.300781 21.7386C0.300781 33.2445 9.62818 42.5719 21.1341 42.5719H166.967C178.473 42.5719 187.801 33.2445 187.801 21.7386C187.801 10.2327 178.473 0.905273 166.967 0.905273Z" fill="#02B14F"/>
<path d="M38.838 20.8014C38.5755 19.4264 37.438 18.668 36.088 18.668C34.2588 18.668 32.8922 20.0806 32.8922 22.6597C32.8922 25.2389 34.2672 26.6514 36.0838 26.6514C37.4255 26.6514 38.5672 25.9056 38.8422 24.5472H40.4588C40.113 26.6514 38.4088 28.1139 36.0755 28.1139C33.3172 28.1139 31.3047 26.0556 31.3047 22.6639C31.3047 19.2722 33.3297 17.2139 36.0755 17.2139C38.3172 17.2139 40.0963 18.5389 40.4588 20.8098H38.8422L38.838 20.8014Z" fill="white"/>
<path d="M43.7922 27.9597H42.2422V17.3472H43.7713V21.2972H43.8713C44.2463 20.4388 44.9922 19.8972 46.2297 19.8972C47.8672 19.8972 48.9547 20.9139 48.9547 22.8972V27.9597H47.4047V23.0847C47.4047 21.918 46.7672 21.2389 45.7005 21.2389C44.6338 21.2389 43.7922 21.9639 43.7922 23.2347V27.9597Z" fill="white"/>
<path d="M50.8262 17.8515C50.8262 17.3432 51.2678 16.9224 51.8053 16.9224C52.3428 16.9224 52.7845 17.3432 52.7845 17.8515C52.7845 18.3599 52.3387 18.7723 51.8053 18.7723C51.272 18.7723 50.8262 18.3557 50.8262 17.8515ZM51.022 20.0016H52.572V27.9599H51.022V20.0016Z" fill="white"/>
<path d="M54.2796 25.7139C54.2796 23.9056 55.8254 23.5097 57.3295 23.3347C58.7587 23.1681 59.342 23.1806 59.342 22.6139V22.5764C59.342 21.6764 58.8295 21.1514 57.8295 21.1514C56.8295 21.1514 56.2087 21.6972 55.9795 22.2597L54.5212 21.9264C55.0379 20.4764 56.367 19.8931 57.8045 19.8931C59.067 19.8931 60.8921 20.3555 60.8921 22.6722V27.9555H59.3796V26.8681H59.317C59.0212 27.4639 58.2795 28.1306 56.9629 28.1306C55.4504 28.1306 54.2754 27.2722 54.2754 25.7055L54.2796 25.7139ZM59.3462 25.0931V24.0681C59.1212 24.2889 57.9295 24.4264 57.4295 24.4931C56.5337 24.6139 55.7962 24.9097 55.7962 25.7347C55.7962 26.5014 56.4296 26.8972 57.3046 26.8972C58.5962 26.8972 59.3462 26.0389 59.3462 25.0931Z" fill="white"/>
<path d="M71.3754 22.1933C71.192 21.66 70.7504 21.1266 69.7837 21.1266C68.9045 21.1266 68.2379 21.5599 68.2462 22.1724C68.242 22.7099 68.6212 23.0058 69.4962 23.2141L70.7587 23.5058C72.2212 23.8433 72.9337 24.5391 72.9337 25.6599C72.9337 27.1016 71.6004 28.1225 69.6795 28.1225C67.892 28.1225 66.7212 27.3308 66.4629 25.9183L67.9587 25.6891C68.1462 26.4724 68.742 26.8725 69.667 26.8725C70.6837 26.8725 71.342 26.3891 71.342 25.7724C71.342 25.2766 70.9837 24.9349 70.2171 24.7641L68.8712 24.4683C67.3795 24.1349 66.6962 23.3849 66.6962 22.2558C66.6962 20.8474 67.9712 19.8975 69.767 19.8975C71.5629 19.8975 72.4545 20.7058 72.7795 21.9433L71.3754 22.1933Z" fill="white"/>
<path d="M74.2715 24.0347C74.2715 21.5889 75.734 19.9014 77.9506 19.9014C79.7548 19.9014 81.4756 21.0263 81.4756 23.9013V24.4514H75.8173C75.859 25.9847 76.7507 26.8472 78.0757 26.8472C78.9548 26.8472 79.6298 26.4639 79.909 25.7139L81.3756 25.9763C81.0215 27.2722 79.7965 28.1264 78.059 28.1264C75.7131 28.1264 74.2715 26.5097 74.2715 24.0389V24.0347ZM79.9548 23.2889C79.9507 22.0722 79.1631 21.1805 77.959 21.1805C76.7548 21.1805 75.8798 22.1597 75.8173 23.2889H79.9507H79.9548ZM77.2965 18.9055L77.2548 17.8472C77.9839 17.8097 78.259 17.6555 78.2548 17.343C78.259 16.968 77.7798 16.8264 77.1673 16.8264L77.2131 15.9722C78.7798 15.9722 79.6089 16.5055 79.6006 17.3514C79.6048 18.0305 79.0631 18.3264 78.5173 18.4097V18.9055H77.2965Z" fill="white"/>
<path d="M88.6086 27.9599H87.0586V20.0016H88.5461V21.2974H88.6461C89.0128 20.4516 89.7961 19.8975 90.992 19.8975C92.6211 19.8975 93.7003 20.9266 93.7003 22.8974V27.9599H92.1502V23.0849C92.1502 21.9308 91.5128 21.2391 90.4628 21.2391C89.4128 21.2391 88.6086 21.9641 88.6086 23.235V27.9599Z" fill="white"/>
<path d="M95.4082 24.018C95.4082 21.543 96.8749 19.8973 99.1165 19.8973C101.358 19.8973 102.825 21.5389 102.825 24.018C102.825 26.4972 101.358 28.1223 99.1165 28.1223C96.8749 28.1223 95.4082 26.4805 95.4082 24.018ZM101.783 19.2723H100.417L99.104 18.2473L97.7999 19.2723H96.429L98.579 17.5764H99.6374L101.787 19.2723H101.783ZM101.267 24.0139C101.267 22.4889 100.583 21.1972 99.1249 21.1972C97.6666 21.1972 96.9749 22.493 96.9749 24.0139C96.9749 25.5347 97.6582 26.8222 99.1249 26.8222C100.592 26.8222 101.267 25.543 101.267 24.0139ZM100.983 15.9764C100.983 16.5347 100.512 17.0973 99.8707 17.0973C99.1832 17.0973 98.9415 16.6097 98.3998 16.6097C98.129 16.6097 97.8707 16.868 97.8707 17.1222L97.2499 16.9556C97.2499 16.4014 97.704 15.8264 98.3498 15.8264C98.9165 15.8264 99.2999 16.293 99.8207 16.293C100.083 16.293 100.346 16.0305 100.346 15.7764L100.987 15.9764H100.983Z" fill="white"/>
<path d="M109.964 27.9597H108.414V17.3472H109.964V27.9597Z" fill="white"/>
<path d="M120.776 19.6182C120.771 21.1432 120.28 21.9848 118.655 22.1057V27.9598H117.13V26.5807H117.046C116.68 27.4307 115.867 28.064 114.667 28.064C113.138 28.064 112.055 27.039 112.055 25.064V20.0016H113.605V24.8765C113.605 25.9599 114.267 26.6557 115.226 26.6557C116.096 26.6557 117.101 26.014 117.096 24.6599V20.0016H118.651V21.2015C119.571 21.0932 119.621 20.5932 119.626 19.6182H120.771H120.776ZM114.496 29.7849C114.496 29.2766 114.938 28.8557 115.476 28.8557C116.013 28.8557 116.455 29.2766 116.455 29.7849C116.455 30.2932 116.009 30.7057 115.476 30.7057C114.942 30.7057 114.496 30.2891 114.496 29.7849Z" fill="white"/>
<path d="M121.184 24.0182C121.184 21.5891 122.634 19.8975 124.879 19.8975C126.688 19.8975 128 20.9641 128.163 22.5724H126.654C126.488 21.8266 125.888 21.2057 124.904 21.2057C123.609 21.2057 122.75 22.2766 122.75 23.9849C122.75 25.6932 123.596 26.8141 124.904 26.8141C125.792 26.8141 126.459 26.3057 126.654 25.4474H128.163C127.992 26.9974 126.775 28.1266 124.892 28.1266C122.579 28.1266 121.184 26.4224 121.184 24.0224V24.0182Z" fill="white"/>
<path d="M135.234 27.9599H133.684V20.0016H135.171V21.2974H135.271C135.638 20.4516 136.421 19.8975 137.617 19.8975C139.246 19.8975 140.325 20.9266 140.325 22.8974V27.9599H138.775V23.0849C138.775 21.9308 138.138 21.2391 137.088 21.2391C136.038 21.2391 135.234 21.9641 135.234 23.235V27.9599Z" fill="white"/>
<path d="M142.022 25.7138C142.022 23.9054 143.568 23.5096 145.072 23.3346C146.501 23.1679 147.084 23.1805 147.084 22.6138V22.5763C147.084 21.6763 146.572 21.1513 145.572 21.1513C144.572 21.1513 143.951 21.6971 143.722 22.2596L142.263 21.9262C142.78 20.4762 144.109 19.8929 145.547 19.8929C146.809 19.8929 148.634 20.3554 148.634 22.6721V27.9554H147.122V26.8679H147.059C146.763 27.4638 146.022 28.1305 144.705 28.1305C143.193 28.1305 142.018 27.2721 142.018 25.7054L142.022 25.7138ZM143.426 16.5513H145.059L146.268 18.9388H145.03L143.43 16.5513H143.426ZM147.088 25.0888V24.0638C146.863 24.2846 145.672 24.4221 145.172 24.4888C144.276 24.6096 143.538 24.9054 143.538 25.7304C143.538 26.4971 144.172 26.893 145.047 26.893C146.338 26.893 147.088 26.0346 147.088 25.0888Z" fill="white"/>
<path d="M150.329 30.7764L150.7 29.5056C151.55 29.7389 152.104 29.6514 152.5 28.5931L152.692 28.0639L149.779 20.0015H151.438L153.454 26.1764H153.538L155.554 20.0015H157.217L153.938 29.0223C153.475 30.2764 152.667 30.9431 151.388 30.9431C150.921 30.9431 150.517 30.8556 150.329 30.7722V30.7764Z" fill="white"/>
</svg>
