<svg width="158" height="11" viewBox="0 0 158 11" fill="none" xmlns="http://www.w3.org/2000/svg">
<g opacity="0.57">
<path d="M0.677979 10.0108C1.16854 10.2317 2.01104 10.2526 2.81087 10.2901C2.19766 10.0776 1.5418 9.98585 0.677979 10.0108Z" fill="#43C554"/>
<path d="M2.8255 10.2939H2.83648C2.82552 10.2939 2.81456 10.2939 2.80908 10.2939C2.81456 10.2939 2.82002 10.2939 2.8255 10.2981V10.2939Z" fill="#43C554"/>
<path d="M158 0.256348C157.803 0.260514 157.573 0.264693 157.344 0.26886C157.563 0.277193 157.787 0.277181 158 0.256348Z" fill="#43C554"/>
<path d="M40.0676 10.8599L40.1858 10.497C42.0154 10.4888 40.7202 10.9134 42.4111 10.8227C43.0741 10.3074 45.2225 10.8722 45.8033 10.6001C45.7878 10.6413 46.6204 10.6578 46.5639 10.8186C46.8157 10.5383 47.417 10.7527 47.9361 10.6826C48.1263 10.6043 47.7974 10.6001 47.6535 10.5135L48.8509 10.4146C49.3186 10.5053 49.4317 10.6702 48.928 10.699C52.0529 10.798 67.0653 11.0536 70.4317 10.9134C70 10.7032 68.9567 10.8475 68.5661 10.5135C69.4552 10.328 69.8767 10.5795 70.2673 10.3816C70.6116 10.8763 72.2254 10.497 72.8987 11L73.1557 10.7197L73.5977 10.8888C77.514 10.596 74.4919 10.7444 77.9611 10.8104C79.9706 10.765 80.9266 10.3775 82.0419 10.5218C81.8774 10.5218 81.4303 10.3487 81.9545 10.2745C82.0419 10.5218 83.3421 10.0971 83.594 10.3445C84.1028 10.3115 85.7525 10.3445 85.1975 10.0064C85.4802 10.1754 86.9501 10.2414 86.0764 10.3857C86.5749 10.3939 87.0529 10.4435 87.4126 10.3693L86.7753 10.2745C88.456 10.225 89.3708 10.4846 90.4603 10.1795L89.8385 10.0477C90.8407 10.0271 91.6835 9.99818 92.0741 10.3321L91.0462 10.4352C92.7114 10.427 93.7136 10.4022 95.1013 10.2249L94.6079 10.2167C96.3759 9.88272 105.622 9.60236 107.246 9.18594L106.496 8.93037L107.894 8.71184C107.729 8.71184 107.22 9.54873 107.082 9.46628C110.083 9.44154 125.692 9.23131 128.462 9.40447C129.582 9.54465 128.662 9.81268 128.652 9.85391C130.014 9.75496 129.238 9.58175 130.394 9.60236C130.708 9.64772 130.327 9.80442 130.153 9.84153C130.662 9.81267 131.129 9.89919 131.17 9.77962C130.538 9.6848 130.805 9.36732 130.538 9.15705L132.029 9.18182L131.962 9.38384C132.296 9.38796 132.805 8.83133 134.264 8.93853C136.731 9.02511 139.409 8.95095 141.891 8.9963C141.855 9.11587 141.331 9.19004 140.812 9.26013C141.146 9.26425 141.65 9.23545 141.958 9.32203C141.357 9.10764 142.996 9.1777 142.529 9.087C144.343 8.59224 146.697 9.04167 148.3 8.70359C148.439 8.25831 151.728 1.07199 151.728 0.544257C152.227 0.552503 152.72 0.560709 152.874 0.606061C152.746 0.482373 151.769 0.424644 151.245 0.494734L151.158 0.779294C149.96 0.878245 150.875 0.610209 149.709 0.630823C149.647 0.399938 150.721 0.350467 151.667 0.325729C150.814 0.300991 149.966 0.131906 149.616 0.383406C148.814 0.288578 149.703 0.0989508 148.742 0C148.054 0.0700901 147.154 0.296909 146.363 0.160851L146.378 0.119582C144.461 -0.119549 143.443 0.474171 141.686 0.239163L141.876 0.160851C141.254 0.028917 140.036 0.206212 138.916 0.0660316C139.234 0.111384 139.512 0.280361 138.838 0.309221C137.554 0.164918 136.675 0.309249 135.734 0.131963L134.835 0.358745C130.358 0.317515 112.678 0.651494 108.181 0.688601L108.356 0.651458C101.505 0.771024 87.4383 0.758667 80.3613 1.07613C79.2665 0.853495 77.7555 0.907069 76.6145 0.845225C77.2518 0.93593 77.0308 1.09676 76.5374 1.08851C73.058 1.06378 76.301 1.24101 72.7805 1.33996C68.7254 1.55023 53.2092 1.32347 49.6116 1.13381C47.6791 1.46365 45.2636 1.21625 43.3722 1.42652L43.5624 1.34821C41.5271 1.4719 30.0147 1.1751 27.6505 1.29466L27.9692 1.33996C25.9082 1.54611 26.1909 1.18745 24.5617 1.07613C24.7775 1.44308 23.0096 1.65746 22.3363 1.6822L22.362 1.59976C21.3443 1.6616 19.047 1.98311 17.3664 2.03671L17.4332 1.83469C16.0352 2.05321 13.4038 1.96255 12.3965 1.98729C10.0991 1.90483 6.54772 1.55432 3.4743 1.82644L1.48532 1.25339L1.19236 1.31107C1.19236 1.31107 -1.99927 8.26244 2.06094 9.74258L1.99412 9.9446L2.79588 9.91984C3.75697 10.0188 4.2041 9.78375 4.13729 9.98577L2.81643 9.96111C3.78266 10.0188 3.1094 10.126 2.73936 10.2414C3.14538 10.2621 3.53598 10.2827 3.85976 10.3445C4.04993 10.2662 3.72099 10.262 3.56681 10.2167C4.0859 10.1466 4.81059 9.95697 5.44788 10.0477C6.43981 10.0642 5.50956 10.3733 6.66594 10.3939C12.7665 10.5465 18.677 10.7774 24.8444 10.7279C24.9831 10.8104 24.8186 10.8104 24.6388 10.8475C26.4941 10.7609 28.149 10.7897 29.8399 10.699C30.3076 10.7897 30.4361 10.9135 30.5749 10.996C30.2974 10.8269 39.9134 10.8063 40.0676 10.8516V10.8599Z" fill="#43C554"/>
</g>
</svg>
